<svg xmlns="http://www.w3.org/2000/svg" xmlns:xlink="http://www.w3.org/1999/xlink" width="137" zoomAndPan="magnify" viewBox="0 0 102.75 42" height="56" preserveAspectRatio="xMidYMid meet" version="1.0"><defs><g/></defs><g fill="#000000" fill-opacity="1"><g transform="translate(55.986872, 32.027638)"><g><path d="M 0.265625 0 L 0.300781 -0.300781 C 0.300781 -0.300781 0.417969 -0.367188 0.648438 -0.5 C 0.882812 -0.632812 1.140625 -0.90625 1.417969 -1.316406 C 1.695312 -1.726562 1.878906 -2.367188 1.964844 -3.234375 L 4.734375 -20.097656 C 4.753906 -20.234375 4.765625 -20.367188 4.765625 -20.5 C 4.765625 -20.632812 4.765625 -20.753906 4.765625 -20.867188 C 4.765625 -21.53125 4.675781 -22.011719 4.5 -22.300781 C 4.320312 -22.589844 4.167969 -22.777344 4.035156 -22.867188 C 3.945312 -22.910156 3.859375 -22.949219 3.785156 -22.984375 C 3.707031 -23.015625 3.667969 -23.03125 3.667969 -23.03125 L 3.632812 -23.332031 L 8.367188 -23.332031 L 8.433594 -23.03125 C 8.433594 -23.03125 8.355469 -22.988281 8.199219 -22.898438 C 8.042969 -22.8125 7.890625 -22.632812 7.734375 -22.367188 C 7.578125 -22.097656 7.5 -21.675781 7.5 -21.097656 C 7.5 -20.8125 7.53125 -20.476562 7.601562 -20.097656 C 8.089844 -17.277344 8.570312 -14.464844 9.050781 -11.667969 C 9.527344 -8.867188 10.011719 -6.054688 10.5 -3.234375 C 10.65625 -2.367188 10.871094 -1.726562 11.148438 -1.316406 C 11.425781 -0.90625 11.6875 -0.632812 11.933594 -0.5 C 12.175781 -0.367188 12.300781 -0.300781 12.300781 -0.300781 L 12.367188 0 L 7.734375 0 L 7.699219 -0.332031 C 7.699219 -0.332031 7.773438 -0.378906 7.917969 -0.464844 C 8.0625 -0.554688 8.207031 -0.738281 8.351562 -1.015625 C 8.496094 -1.292969 8.566406 -1.710938 8.566406 -2.265625 C 8.566406 -2.398438 8.566406 -2.554688 8.566406 -2.734375 C 8.566406 -2.910156 8.542969 -3.078125 8.5 -3.234375 L 7.765625 -7.933594 L 3.535156 -7.933594 C 3.488281 -7.621094 3.410156 -7.15625 3.300781 -6.53125 C 3.1875 -5.910156 3.082031 -5.285156 2.984375 -4.648438 C 2.882812 -4.015625 2.8125 -3.542969 2.765625 -3.234375 C 2.746094 -3.121094 2.734375 -3.003906 2.734375 -2.882812 C 2.734375 -2.761719 2.734375 -2.644531 2.734375 -2.535156 C 2.734375 -1.890625 2.820312 -1.40625 3 -1.082031 C 3.175781 -0.761719 3.351562 -0.550781 3.515625 -0.449219 C 3.683594 -0.351562 3.765625 -0.300781 3.765625 -0.300781 L 3.734375 0 Z M 3.566406 -8.667969 L 7.601562 -8.632812 L 5.5 -20.433594 L 3.667969 -8.667969 Z M 3.566406 -8.667969 "/></g></g></g><g fill="#000000" fill-opacity="1"><g transform="translate(67.519214, 32.027638)"><g><path d="M 6.367188 0.199219 C 5.457031 0.199219 4.707031 0.015625 4.117188 -0.351562 C 3.527344 -0.714844 3.0625 -1.1875 2.714844 -1.765625 C 2.371094 -2.34375 2.117188 -2.945312 1.949219 -3.566406 C 1.785156 -4.1875 1.679688 -4.753906 1.632812 -5.265625 C 1.589844 -5.777344 1.566406 -6.15625 1.566406 -6.398438 C 1.566406 -6.464844 1.570312 -6.515625 1.582031 -6.550781 C 1.59375 -6.582031 1.601562 -6.601562 1.601562 -6.601562 L 1.601562 -20.097656 C 1.601562 -20.964844 1.488281 -21.605469 1.265625 -22.015625 C 1.042969 -22.425781 0.820312 -22.699219 0.601562 -22.832031 C 0.378906 -22.964844 0.265625 -23.03125 0.265625 -23.03125 L 0.265625 -23.332031 L 5 -23.332031 L 5 -23.03125 C 5 -23.03125 4.894531 -22.964844 4.683594 -22.832031 C 4.472656 -22.699219 4.253906 -22.425781 4.035156 -22.015625 C 3.8125 -21.605469 3.699219 -20.964844 3.699219 -20.097656 L 3.699219 -6 C 3.699219 -5.023438 3.804688 -4.105469 4.015625 -3.25 C 4.226562 -2.394531 4.535156 -1.707031 4.933594 -1.183594 C 5.332031 -0.660156 5.8125 -0.398438 6.367188 -0.398438 C 6.988281 -0.398438 7.503906 -0.648438 7.917969 -1.148438 C 8.328125 -1.648438 8.648438 -2.300781 8.882812 -3.101562 C 9.117188 -3.898438 9.292969 -4.75 9.417969 -5.648438 C 9.539062 -6.550781 9.609375 -7.410156 9.632812 -8.234375 L 9.632812 -20.097656 C 9.632812 -20.964844 9.523438 -21.605469 9.300781 -22.015625 C 9.078125 -22.425781 8.855469 -22.699219 8.632812 -22.832031 C 8.410156 -22.964844 8.300781 -23.03125 8.300781 -23.03125 L 8.300781 -23.332031 L 11.933594 -23.332031 L 11.933594 -23.03125 C 11.933594 -23.03125 11.820312 -22.964844 11.601562 -22.832031 C 11.378906 -22.699219 11.15625 -22.425781 10.933594 -22.015625 C 10.710938 -21.605469 10.601562 -20.964844 10.601562 -20.097656 L 10.601562 -7.933594 C 10.601562 -7.667969 10.582031 -7.222656 10.550781 -6.601562 C 10.515625 -5.976562 10.425781 -5.285156 10.28125 -4.515625 C 10.136719 -3.75 9.917969 -3.003906 9.617188 -2.285156 C 9.316406 -1.5625 8.90625 -0.964844 8.382812 -0.5 C 7.859375 -0.0351562 7.1875 0.199219 6.367188 0.199219 Z M 6.367188 0.199219 "/></g></g></g><g fill="#000000" fill-opacity="1"><g transform="translate(78.618254, 32.027638)"><g><path d="M 9.832031 -17.5 C 9.832031 -16.898438 9.777344 -16.25 9.667969 -15.550781 C 9.554688 -14.851562 9.359375 -14.1875 9.082031 -13.566406 C 8.804688 -12.945312 8.421875 -12.433594 7.933594 -12.03125 C 7.445312 -11.632812 6.8125 -11.433594 6.03125 -11.433594 L 4 -11.464844 L 5.765625 -10.53125 L 8.867188 -2.832031 C 9.199219 -2.035156 9.523438 -1.457031 9.832031 -1.101562 C 10.144531 -0.746094 10.394531 -0.527344 10.582031 -0.449219 C 10.773438 -0.371094 10.867188 -0.332031 10.867188 -0.332031 L 10.867188 0 L 7.53125 0 L 3.699219 -10.800781 L 3.699219 -3.234375 C 3.699219 -2.367188 3.8125 -1.726562 4.035156 -1.316406 C 4.253906 -0.90625 4.476562 -0.640625 4.699219 -0.515625 C 4.921875 -0.394531 5.035156 -0.332031 5.035156 -0.332031 L 5.035156 0 L 0.265625 0 L 0.265625 -0.332031 C 0.3125 -0.355469 0.429688 -0.429688 0.617188 -0.550781 C 0.804688 -0.671875 1 -0.90625 1.199219 -1.25 C 1.398438 -1.59375 1.523438 -2.109375 1.566406 -2.800781 L 1.566406 -21 C 1.523438 -21.644531 1.394531 -22.105469 1.183594 -22.382812 C 0.972656 -22.660156 0.765625 -22.832031 0.566406 -22.898438 C 0.367188 -22.964844 0.265625 -23 0.265625 -23 L 0.265625 -23.332031 L 5.167969 -23.332031 C 6.054688 -23.332031 6.792969 -23.148438 7.382812 -22.78125 C 7.972656 -22.417969 8.445312 -21.9375 8.800781 -21.347656 C 9.15625 -20.761719 9.410156 -20.128906 9.566406 -19.449219 C 9.722656 -18.773438 9.8125 -18.121094 9.832031 -17.5 Z M 5.199219 -11.964844 C 5.777344 -11.964844 6.238281 -12.175781 6.582031 -12.601562 C 6.925781 -13.023438 7.1875 -13.550781 7.367188 -14.183594 C 7.542969 -14.816406 7.660156 -15.449219 7.714844 -16.082031 C 7.773438 -16.714844 7.800781 -17.242188 7.800781 -17.667969 L 7.800781 -17.734375 C 7.800781 -19 7.65625 -19.976562 7.367188 -20.667969 C 7.078125 -21.355469 6.738281 -21.84375 6.351562 -22.132812 C 5.960938 -22.421875 5.621094 -22.597656 5.332031 -22.667969 C 5.042969 -22.734375 4.898438 -22.765625 4.898438 -22.765625 L 3.699219 -22.765625 L 3.699219 -11.964844 Z M 5.199219 -11.964844 "/></g></g></g><g fill="#000000" fill-opacity="1"><g transform="translate(88.617378, 32.027638)"><g><path d="M 0.265625 0 L 0.300781 -0.300781 C 0.300781 -0.300781 0.417969 -0.367188 0.648438 -0.5 C 0.882812 -0.632812 1.140625 -0.90625 1.417969 -1.316406 C 1.695312 -1.726562 1.878906 -2.367188 1.964844 -3.234375 L 4.734375 -20.097656 C 4.753906 -20.234375 4.765625 -20.367188 4.765625 -20.5 C 4.765625 -20.632812 4.765625 -20.753906 4.765625 -20.867188 C 4.765625 -21.53125 4.675781 -22.011719 4.5 -22.300781 C 4.320312 -22.589844 4.167969 -22.777344 4.035156 -22.867188 C 3.945312 -22.910156 3.859375 -22.949219 3.785156 -22.984375 C 3.707031 -23.015625 3.667969 -23.03125 3.667969 -23.03125 L 3.632812 -23.332031 L 8.367188 -23.332031 L 8.433594 -23.03125 C 8.433594 -23.03125 8.355469 -22.988281 8.199219 -22.898438 C 8.042969 -22.8125 7.890625 -22.632812 7.734375 -22.367188 C 7.578125 -22.097656 7.5 -21.675781 7.5 -21.097656 C 7.5 -20.8125 7.53125 -20.476562 7.601562 -20.097656 C 8.089844 -17.277344 8.570312 -14.464844 9.050781 -11.667969 C 9.527344 -8.867188 10.011719 -6.054688 10.5 -3.234375 C 10.65625 -2.367188 10.871094 -1.726562 11.148438 -1.316406 C 11.425781 -0.90625 11.6875 -0.632812 11.933594 -0.5 C 12.175781 -0.367188 12.300781 -0.300781 12.300781 -0.300781 L 12.367188 0 L 7.734375 0 L 7.699219 -0.332031 C 7.699219 -0.332031 7.773438 -0.378906 7.917969 -0.464844 C 8.0625 -0.554688 8.207031 -0.738281 8.351562 -1.015625 C 8.496094 -1.292969 8.566406 -1.710938 8.566406 -2.265625 C 8.566406 -2.398438 8.566406 -2.554688 8.566406 -2.734375 C 8.566406 -2.910156 8.542969 -3.078125 8.5 -3.234375 L 7.765625 -7.933594 L 3.535156 -7.933594 C 3.488281 -7.621094 3.410156 -7.15625 3.300781 -6.53125 C 3.1875 -5.910156 3.082031 -5.285156 2.984375 -4.648438 C 2.882812 -4.015625 2.8125 -3.542969 2.765625 -3.234375 C 2.746094 -3.121094 2.734375 -3.003906 2.734375 -2.882812 C 2.734375 -2.761719 2.734375 -2.644531 2.734375 -2.535156 C 2.734375 -1.890625 2.820312 -1.40625 3 -1.082031 C 3.175781 -0.761719 3.351562 -0.550781 3.515625 -0.449219 C 3.683594 -0.351562 3.765625 -0.300781 3.765625 -0.300781 L 3.734375 0 Z M 3.566406 -8.667969 L 7.601562 -8.632812 L 5.5 -20.433594 L 3.667969 -8.667969 Z M 3.566406 -8.667969 "/></g></g></g><g fill="#000000" fill-opacity="1"><g transform="translate(3.240271, 32.665644)"><g><path d="M 11.742188 -24.828125 L 11.742188 -24.472656 C 11.742188 -24.472656 11.621094 -24.433594 11.386719 -24.351562 C 11.148438 -24.265625 10.914062 -24.054688 10.675781 -23.710938 C 10.441406 -23.367188 10.320312 -22.796875 10.320312 -21.992188 L 10.320312 -2.835938 C 10.320312 -2.058594 10.441406 -1.488281 10.675781 -1.136719 C 10.914062 -0.78125 11.148438 -0.5625 11.386719 -0.480469 C 11.621094 -0.394531 11.742188 -0.355469 11.742188 -0.355469 L 11.742188 0 L 6.667969 0 L 6.667969 -0.355469 C 6.667969 -0.355469 6.785156 -0.394531 7.023438 -0.480469 C 7.257812 -0.5625 7.496094 -0.773438 7.734375 -1.117188 C 7.96875 -1.460938 8.085938 -2.035156 8.085938 -2.835938 L 8.085938 -15.324219 L 3.9375 -15.324219 L 3.9375 -2.835938 C 3.9375 -2.058594 4.054688 -1.488281 4.292969 -1.136719 C 4.527344 -0.78125 4.765625 -0.5625 5 -0.480469 C 5.238281 -0.394531 5.355469 -0.355469 5.355469 -0.355469 L 5.355469 0 L 0.285156 0 L 0.285156 -0.355469 C 0.285156 -0.355469 0.402344 -0.394531 0.636719 -0.480469 C 0.875 -0.5625 1.113281 -0.773438 1.347656 -1.117188 C 1.585938 -1.460938 1.703125 -2.035156 1.703125 -2.835938 L 1.703125 -21.992188 C 1.703125 -22.796875 1.585938 -23.367188 1.347656 -23.710938 C 1.113281 -24.054688 0.875 -24.265625 0.636719 -24.351562 C 0.402344 -24.433594 0.285156 -24.472656 0.285156 -24.472656 L 0.285156 -24.828125 L 5.355469 -24.828125 L 5.355469 -24.472656 C 5.355469 -24.472656 5.238281 -24.433594 5 -24.351562 C 4.765625 -24.265625 4.527344 -24.042969 4.292969 -23.675781 C 4.054688 -23.308594 3.9375 -22.6875 3.9375 -21.8125 L 3.9375 -15.960938 L 8.085938 -15.960938 L 8.085938 -21.992188 C 8.085938 -22.796875 7.96875 -23.367188 7.734375 -23.710938 C 7.496094 -24.054688 7.257812 -24.265625 7.023438 -24.351562 C 6.785156 -24.433594 6.667969 -24.472656 6.667969 -24.472656 L 6.667969 -24.828125 Z M 11.742188 -24.828125 "/></g></g></g><g fill="#000000" fill-opacity="1"><g transform="translate(14.093687, 32.665644)"><g><path d="M 0.285156 0 L 0.320312 -0.320312 C 0.320312 -0.320312 0.445312 -0.390625 0.691406 -0.53125 C 0.941406 -0.675781 1.210938 -0.964844 1.507812 -1.402344 C 1.804688 -1.839844 2 -2.519531 2.09375 -3.441406 L 5.035156 -21.386719 C 5.058594 -21.53125 5.070312 -21.671875 5.070312 -21.8125 C 5.070312 -21.957031 5.070312 -22.085938 5.070312 -22.203125 C 5.070312 -22.914062 4.976562 -23.421875 4.789062 -23.730469 C 4.597656 -24.035156 4.433594 -24.238281 4.292969 -24.332031 C 4.199219 -24.378906 4.109375 -24.421875 4.027344 -24.457031 C 3.941406 -24.492188 3.902344 -24.507812 3.902344 -24.507812 L 3.867188 -24.828125 L 8.902344 -24.828125 L 8.972656 -24.507812 C 8.972656 -24.507812 8.890625 -24.460938 8.726562 -24.367188 C 8.558594 -24.273438 8.394531 -24.085938 8.230469 -23.800781 C 8.0625 -23.515625 7.980469 -23.066406 7.980469 -22.453125 C 7.980469 -22.144531 8.015625 -21.789062 8.085938 -21.386719 C 8.605469 -18.386719 9.121094 -15.394531 9.628906 -12.414062 C 10.136719 -9.433594 10.652344 -6.445312 11.171875 -3.441406 C 11.339844 -2.519531 11.570312 -1.839844 11.863281 -1.402344 C 12.160156 -0.964844 12.4375 -0.675781 12.699219 -0.53125 C 12.957031 -0.390625 13.089844 -0.320312 13.089844 -0.320312 L 13.160156 0 L 8.230469 0 L 8.195312 -0.355469 C 8.195312 -0.355469 8.269531 -0.402344 8.425781 -0.496094 C 8.578125 -0.589844 8.730469 -0.785156 8.886719 -1.082031 C 9.039062 -1.378906 9.117188 -1.820312 9.117188 -2.410156 C 9.117188 -2.554688 9.117188 -2.71875 9.117188 -2.910156 C 9.117188 -3.097656 9.09375 -3.273438 9.042969 -3.441406 L 8.265625 -8.441406 L 3.761719 -8.441406 C 3.710938 -8.109375 3.628906 -7.613281 3.511719 -6.953125 C 3.394531 -6.289062 3.28125 -5.621094 3.175781 -4.949219 C 3.066406 -4.273438 2.992188 -3.773438 2.945312 -3.441406 C 2.921875 -3.324219 2.910156 -3.199219 2.910156 -3.066406 C 2.910156 -2.9375 2.910156 -2.8125 2.910156 -2.695312 C 2.910156 -2.011719 3.003906 -1.496094 3.191406 -1.152344 C 3.382812 -0.808594 3.566406 -0.585938 3.742188 -0.480469 C 3.917969 -0.371094 4.007812 -0.320312 4.007812 -0.320312 L 3.972656 0 Z M 3.796875 -9.222656 L 8.085938 -9.1875 L 5.851562 -21.742188 L 3.902344 -9.222656 Z M 3.796875 -9.222656 "/></g></g></g><g fill="#000000" fill-opacity="1"><g transform="translate(26.365864, 32.665644)"><g><path d="M 6.773438 0.210938 C 5.804688 0.210938 5.007812 0.0195312 4.378906 -0.371094 C 3.753906 -0.761719 3.257812 -1.265625 2.890625 -1.878906 C 2.523438 -2.496094 2.253906 -3.132812 2.074219 -3.796875 C 1.898438 -4.457031 1.785156 -5.058594 1.738281 -5.605469 C 1.691406 -6.148438 1.667969 -6.550781 1.667969 -6.808594 C 1.667969 -6.882812 1.671875 -6.933594 1.683594 -6.96875 C 1.695312 -7.003906 1.703125 -7.023438 1.703125 -7.023438 L 1.703125 -21.386719 C 1.703125 -22.3125 1.585938 -22.992188 1.347656 -23.429688 C 1.113281 -23.867188 0.875 -24.15625 0.636719 -24.296875 C 0.402344 -24.4375 0.285156 -24.507812 0.285156 -24.507812 L 0.285156 -24.828125 L 5.320312 -24.828125 L 5.320312 -24.507812 C 5.320312 -24.507812 5.207031 -24.4375 4.984375 -24.296875 C 4.757812 -24.15625 4.527344 -23.867188 4.292969 -23.429688 C 4.054688 -22.992188 3.9375 -22.3125 3.9375 -21.386719 L 3.9375 -6.382812 C 3.9375 -5.34375 4.050781 -4.367188 4.273438 -3.457031 C 4.5 -2.546875 4.824219 -1.816406 5.25 -1.257812 C 5.675781 -0.703125 6.183594 -0.425781 6.773438 -0.425781 C 7.4375 -0.425781 7.988281 -0.691406 8.425781 -1.222656 C 8.863281 -1.753906 9.203125 -2.449219 9.453125 -3.296875 C 9.699219 -4.148438 9.890625 -5.054688 10.019531 -6.011719 C 10.148438 -6.96875 10.226562 -7.886719 10.25 -8.761719 L 10.25 -21.386719 C 10.25 -22.3125 10.132812 -22.992188 9.894531 -23.429688 C 9.660156 -23.867188 9.421875 -24.15625 9.1875 -24.296875 C 8.949219 -24.4375 8.832031 -24.507812 8.832031 -24.507812 L 8.832031 -24.828125 L 12.699219 -24.828125 L 12.699219 -24.507812 C 12.699219 -24.507812 12.578125 -24.4375 12.34375 -24.296875 C 12.105469 -24.15625 11.871094 -23.867188 11.632812 -23.429688 C 11.398438 -22.992188 11.28125 -22.3125 11.28125 -21.386719 L 11.28125 -8.441406 C 11.28125 -8.15625 11.261719 -7.683594 11.226562 -7.023438 C 11.191406 -6.359375 11.097656 -5.621094 10.941406 -4.804688 C 10.789062 -3.992188 10.550781 -3.199219 10.234375 -2.429688 C 9.914062 -1.660156 9.476562 -1.027344 8.921875 -0.53125 C 8.363281 -0.0351562 7.648438 0.210938 6.773438 0.210938 Z M 6.773438 0.210938 "/></g></g></g><g fill="#000000" fill-opacity="1"><g transform="translate(38.176944, 32.665644)"><g><path d="M 4.113281 -16.601562 L 7.734375 -13.015625 C 8.75 -12.117188 9.5 -11.066406 9.984375 -9.859375 C 10.46875 -8.65625 10.710938 -7.460938 10.710938 -6.277344 C 10.710938 -5.121094 10.5 -4.039062 10.074219 -3.03125 C 9.648438 -2.027344 9.015625 -1.21875 8.175781 -0.601562 C 7.335938 0.0117188 6.289062 0.320312 5.035156 0.320312 C 4.160156 0.320312 3.410156 0.0585938 2.785156 -0.460938 C 2.15625 -0.980469 1.644531 -1.550781 1.242188 -2.164062 L 1.171875 -2.234375 C 1.148438 -2.28125 1.128906 -2.316406 1.117188 -2.339844 C 1.105469 -2.363281 1.097656 -2.375 1.097656 -2.375 C 1.027344 -2.375 0.96875 -2.257812 0.921875 -2.023438 C 0.875 -1.785156 0.84375 -1.507812 0.832031 -1.1875 C 0.820312 -0.867188 0.808594 -0.589844 0.796875 -0.355469 C 0.785156 -0.117188 0.78125 0 0.78125 0 L 0.285156 0 L 0.285156 -9.683594 L 0.957031 -9.683594 L 0.957031 -9.648438 C 0.957031 -9.554688 0.976562 -9.175781 1.011719 -8.511719 C 1.046875 -7.851562 1.125 -7.070312 1.242188 -6.171875 C 1.359375 -5.273438 1.566406 -4.375 1.863281 -3.476562 C 2.15625 -2.578125 2.558594 -1.832031 3.066406 -1.242188 C 3.578125 -0.648438 4.234375 -0.355469 5.035156 -0.355469 C 5.910156 -0.355469 6.679688 -0.773438 7.34375 -1.613281 C 8.003906 -2.453125 8.335938 -3.84375 8.335938 -5.78125 C 8.335938 -6.820312 8.210938 -7.667969 7.964844 -8.316406 C 7.714844 -8.96875 7.414062 -9.492188 7.058594 -9.894531 C 6.703125 -10.296875 6.359375 -10.640625 6.03125 -10.925781 C 5.957031 -10.996094 5.886719 -11.0625 5.816406 -11.121094 C 5.746094 -11.179688 5.675781 -11.242188 5.605469 -11.316406 L 2.945312 -13.976562 C 2.1875 -14.660156 1.621094 -15.484375 1.242188 -16.441406 C 0.863281 -17.398438 0.675781 -18.351562 0.675781 -19.296875 C 0.675781 -20.289062 0.855469 -21.21875 1.222656 -22.078125 C 1.589844 -22.941406 2.132812 -23.648438 2.855469 -24.191406 C 3.578125 -24.734375 4.46875 -25.007812 5.535156 -25.007812 C 6.410156 -25.007812 7.148438 -24.753906 7.75 -24.242188 C 8.351562 -23.734375 8.84375 -23.171875 9.222656 -22.558594 C 9.269531 -22.488281 9.304688 -22.433594 9.328125 -22.398438 C 9.351562 -22.363281 9.363281 -22.347656 9.363281 -22.347656 C 9.433594 -22.347656 9.492188 -22.464844 9.542969 -22.699219 C 9.589844 -22.9375 9.617188 -23.214844 9.628906 -23.535156 C 9.640625 -23.851562 9.652344 -24.132812 9.664062 -24.367188 C 9.675781 -24.605469 9.683594 -24.722656 9.683594 -24.722656 L 10.179688 -24.722656 L 10.179688 -15.003906 L 9.507812 -15.003906 L 9.507812 -15.074219 C 9.507812 -15.214844 9.488281 -15.625 9.453125 -16.296875 C 9.417969 -16.972656 9.339844 -17.757812 9.222656 -18.65625 C 9.105469 -19.554688 8.902344 -20.4375 8.621094 -21.300781 C 8.335938 -22.164062 7.945312 -22.882812 7.449219 -23.464844 C 6.953125 -24.042969 6.3125 -24.332031 5.535156 -24.332031 C 4.824219 -24.332031 4.210938 -23.925781 3.6875 -23.109375 C 3.167969 -22.292969 2.910156 -21.292969 2.910156 -20.113281 C 2.910156 -19.140625 3.042969 -18.378906 3.316406 -17.824219 C 3.589844 -17.269531 3.855469 -16.859375 4.113281 -16.601562 Z M 4.113281 -16.601562 "/></g></g></g><g fill="#e7e3dd" fill-opacity="1"><g transform="translate(45.744599, 25.718958)"><g><path d="M 11.40625 -9.722656 C 11.605469 -9.660156 11.761719 -9.554688 11.886719 -9.398438 C 12.003906 -9.25 12.070312 -9.078125 12.09375 -8.878906 C 12.109375 -8.707031 12.09375 -8.554688 12.039062 -8.414062 L 12.035156 -8.40625 L 12.03125 -8.394531 C 11.746094 -7.695312 11.355469 -7.109375 10.863281 -6.640625 C 10.382812 -6.179688 9.847656 -5.824219 9.261719 -5.574219 C 8.691406 -5.335938 8.117188 -5.183594 7.539062 -5.125 L 7.300781 -5.101562 L 7.222656 -5.847656 L 7.941406 -5.628906 C 7.855469 -5.34375 7.753906 -5.058594 7.640625 -4.773438 C 7.527344 -4.496094 7.402344 -4.207031 7.265625 -3.914062 C 6.679688 -2.699219 5.980469 -1.703125 5.164062 -0.925781 C 4.292969 -0.101562 3.402344 0.371094 2.492188 0.5 L 2.476562 0.5 L 2.285156 0.519531 C 1.558594 0.59375 0.945312 0.476562 0.449219 0.167969 C -0.0273438 -0.128906 -0.382812 -0.53125 -0.617188 -1.039062 C -0.824219 -1.484375 -0.953125 -1.9375 -1 -2.390625 L -1.019531 -2.582031 C -1.03125 -2.703125 -1.027344 -2.820312 -1.011719 -2.933594 L -0.269531 -2.828125 L -1.019531 -2.835938 C -1.011719 -3.480469 -0.921875 -4.171875 -0.753906 -4.902344 C -0.582031 -5.640625 -0.3125 -6.371094 0.046875 -7.085938 C 0.800781 -8.574219 1.617188 -9.65625 2.496094 -10.335938 C 3.398438 -11.035156 4.285156 -11.429688 5.15625 -11.515625 L 5.375 -11.539062 C 5.503906 -11.554688 5.695312 -11.546875 5.953125 -11.523438 C 6.25 -11.5 6.5625 -11.410156 6.886719 -11.253906 C 7.253906 -11.082031 7.570312 -10.808594 7.835938 -10.429688 C 8.097656 -10.054688 8.261719 -9.550781 8.328125 -8.914062 C 8.339844 -8.816406 8.34375 -8.714844 8.347656 -8.609375 C 8.347656 -8.511719 8.351562 -8.402344 8.347656 -8.273438 C 8.351562 -7.957031 8.335938 -7.625 8.296875 -7.277344 C 8.261719 -6.945312 8.214844 -6.597656 8.152344 -6.242188 L 7.410156 -6.367188 L 7.335938 -7.117188 C 7.886719 -7.171875 8.441406 -7.371094 9 -7.714844 C 9.515625 -8.03125 9.902344 -8.507812 10.160156 -9.152344 C 10.226562 -9.332031 10.34375 -9.476562 10.507812 -9.589844 C 10.644531 -9.6875 10.804688 -9.742188 10.984375 -9.761719 C 11.15625 -9.777344 11.3125 -9.761719 11.449219 -9.707031 L 11.183594 -9.007812 Z M 10.960938 -8.289062 L 10.9375 -8.296875 L 10.917969 -8.304688 C 11 -8.273438 11.074219 -8.261719 11.140625 -8.269531 C 11.210938 -8.277344 11.285156 -8.304688 11.355469 -8.351562 C 11.449219 -8.417969 11.515625 -8.496094 11.550781 -8.59375 C 11.167969 -7.644531 10.578125 -6.921875 9.785156 -6.433594 C 9.03125 -5.972656 8.265625 -5.703125 7.488281 -5.621094 L 6.503906 -5.523438 L 6.671875 -6.496094 C 6.730469 -6.820312 6.773438 -7.136719 6.804688 -7.4375 C 6.835938 -7.726562 6.851562 -8.011719 6.847656 -8.285156 C 6.847656 -8.398438 6.847656 -8.492188 6.847656 -8.570312 C 6.84375 -8.636719 6.839844 -8.703125 6.835938 -8.761719 C 6.796875 -9.136719 6.722656 -9.40625 6.605469 -9.570312 C 6.496094 -9.726562 6.375 -9.835938 6.25 -9.898438 C 6.085938 -9.976562 5.941406 -10.019531 5.816406 -10.03125 C 5.65625 -10.042969 5.558594 -10.050781 5.527344 -10.046875 L 5.308594 -10.023438 C 4.722656 -9.964844 4.089844 -9.671875 3.414062 -9.148438 C 2.714844 -8.609375 2.039062 -7.695312 1.386719 -6.414062 C 1.078125 -5.800781 0.855469 -5.183594 0.707031 -4.5625 C 0.5625 -3.9375 0.488281 -3.355469 0.480469 -2.820312 L 0.480469 -2.769531 L 0.472656 -2.722656 C 0.472656 -2.726562 0.476562 -2.730469 0.472656 -2.734375 L 0.492188 -2.542969 C 0.523438 -2.257812 0.605469 -1.964844 0.742188 -1.667969 C 0.851562 -1.433594 1.019531 -1.246094 1.242188 -1.105469 C 1.449219 -0.976562 1.746094 -0.933594 2.132812 -0.972656 L 2.3125 -0.992188 L 2.386719 -0.246094 L 2.285156 -0.988281 C 2.878906 -1.070312 3.492188 -1.410156 4.128906 -2.015625 C 4.8125 -2.664062 5.40625 -3.511719 5.90625 -4.550781 C 6.03125 -4.820312 6.144531 -5.082031 6.246094 -5.335938 C 6.347656 -5.578125 6.433594 -5.824219 6.507812 -6.066406 L 6.652344 -6.542969 L 7.386719 -6.617188 C 7.816406 -6.660156 8.246094 -6.773438 8.679688 -6.957031 C 9.09375 -7.132812 9.476562 -7.390625 9.824219 -7.722656 C 10.164062 -8.046875 10.4375 -8.460938 10.644531 -8.964844 L 11.339844 -8.679688 L 10.636719 -8.945312 C 10.605469 -8.863281 10.59375 -8.789062 10.597656 -8.726562 C 10.609375 -8.632812 10.644531 -8.546875 10.707031 -8.46875 C 10.777344 -8.382812 10.859375 -8.320312 10.960938 -8.289062 Z M 6.324219 -8.132812 C 6.328125 -8.210938 6.328125 -8.289062 6.324219 -8.367188 C 6.320312 -8.453125 6.316406 -8.53125 6.308594 -8.609375 C 6.296875 -8.71875 6.28125 -8.828125 6.257812 -8.945312 C 6.242188 -9.011719 6.21875 -9.078125 6.1875 -9.140625 L 6.171875 -9.171875 C 6.140625 -9.234375 6.113281 -9.277344 6.089844 -9.300781 L 6.085938 -9.304688 C 6.089844 -9.304688 6.09375 -9.300781 6.097656 -9.300781 C 5.953125 -9.339844 5.839844 -9.355469 5.761719 -9.347656 C 5.769531 -9.347656 5.78125 -9.351562 5.796875 -9.355469 C 5.714844 -9.332031 5.640625 -9.3125 5.5625 -9.304688 L 5.488281 -10.054688 L 5.679688 -9.328125 C 5.5 -9.28125 5.386719 -9.207031 5.34375 -9.113281 C 5.25 -8.917969 5.203125 -8.722656 5.207031 -8.53125 L 4.457031 -8.519531 L 5.203125 -8.597656 L 5.21875 -8.4375 C 5.25 -8.144531 5.394531 -7.855469 5.652344 -7.5625 C 5.882812 -7.300781 6.226562 -7.152344 6.6875 -7.117188 L 6.902344 -7.097656 L 6.832031 -6.351562 L 6.101562 -6.527344 C 6.238281 -7.09375 6.3125 -7.621094 6.324219 -8.117188 Z M 7.824219 -8.089844 C 7.8125 -7.484375 7.722656 -6.84375 7.558594 -6.171875 L 7.40625 -5.539062 L 6.566406 -5.621094 C 5.703125 -5.691406 5.023438 -6.007812 4.527344 -6.570312 C 4.054688 -7.101562 3.789062 -7.671875 3.726562 -8.285156 L 3.707031 -8.476562 L 3.707031 -8.507812 C 3.699219 -8.933594 3.792969 -9.347656 3.988281 -9.757812 C 4.230469 -10.269531 4.664062 -10.609375 5.292969 -10.777344 L 5.351562 -10.792969 L 5.410156 -10.800781 C 5.386719 -10.796875 5.367188 -10.792969 5.355469 -10.789062 C 5.433594 -10.8125 5.519531 -10.832031 5.605469 -10.839844 C 5.871094 -10.867188 6.164062 -10.835938 6.488281 -10.75 C 6.949219 -10.625 7.296875 -10.3125 7.53125 -9.804688 L 6.851562 -9.488281 L 7.515625 -9.835938 C 7.617188 -9.644531 7.6875 -9.445312 7.726562 -9.238281 C 7.761719 -9.078125 7.785156 -8.917969 7.800781 -8.761719 C 7.8125 -8.652344 7.820312 -8.539062 7.824219 -8.421875 C 7.828125 -8.304688 7.828125 -8.1875 7.824219 -8.074219 Z M 5.457031 -4.761719 C 5.5625 -4.984375 5.652344 -5.207031 5.738281 -5.429688 C 5.824219 -5.652344 5.898438 -5.871094 5.964844 -6.082031 L 6.679688 -5.851562 L 6.757812 -5.105469 C 6.625 -5.09375 6.5 -5.109375 6.375 -5.15625 C 6.472656 -5.121094 6.566406 -5.105469 6.65625 -5.113281 L 6.585938 -5.109375 L 6.515625 -5.113281 C 5.535156 -5.199219 4.753906 -5.5625 4.175781 -6.207031 C 3.621094 -6.824219 3.304688 -7.5 3.230469 -8.234375 L 3.203125 -8.480469 L 3.207031 -8.527344 C 3.207031 -8.640625 3.210938 -8.746094 3.214844 -8.839844 C 3.222656 -8.96875 3.238281 -9.097656 3.269531 -9.21875 L 4 -9.054688 L 4.53125 -8.523438 C 3.945312 -7.945312 3.445312 -7.203125 3.019531 -6.296875 C 2.734375 -5.6875 2.492188 -5.082031 2.292969 -4.472656 C 2.109375 -3.910156 2.015625 -3.398438 2.019531 -2.929688 L 2.019531 -2.878906 C 2.015625 -2.839844 2.015625 -2.800781 2.019531 -2.769531 L 2.039062 -2.5625 C 2.070312 -2.269531 2.140625 -2.039062 2.25 -1.871094 C 2.292969 -1.804688 2.363281 -1.765625 2.460938 -1.753906 L 2.480469 -1.753906 L 2.496094 -1.75 C 2.488281 -1.753906 2.480469 -1.753906 2.476562 -1.753906 C 2.492188 -1.753906 2.511719 -1.753906 2.535156 -1.757812 C 2.746094 -1.78125 3.011719 -1.902344 3.328125 -2.132812 C 3.703125 -2.398438 4.078125 -2.761719 4.464844 -3.21875 C 4.847656 -3.679688 5.183594 -4.199219 5.464844 -4.777344 L 6.140625 -4.449219 Z M 6.824219 -4.136719 L 6.816406 -4.121094 C 6.476562 -3.429688 6.078125 -2.808594 5.613281 -2.253906 C 5.148438 -1.703125 4.679688 -1.253906 4.203125 -0.910156 C 3.671875 -0.53125 3.164062 -0.3125 2.6875 -0.265625 C 2.535156 -0.25 2.398438 -0.25 2.285156 -0.265625 L 2.390625 -1.007812 L 2.320312 -0.261719 C 1.738281 -0.316406 1.296875 -0.582031 0.988281 -1.054688 C 0.75 -1.425781 0.601562 -1.878906 0.546875 -2.410156 L 0.527344 -2.617188 C 0.515625 -2.730469 0.511719 -2.851562 0.519531 -2.972656 L 1.269531 -2.925781 L 0.519531 -2.921875 C 0.515625 -3.550781 0.632812 -4.226562 0.867188 -4.941406 C 1.085938 -5.605469 1.351562 -6.269531 1.660156 -6.933594 C 2.160156 -7.996094 2.761719 -8.882812 3.46875 -9.585938 L 5.292969 -11.402344 L 4.730469 -8.894531 C 4.722656 -8.851562 4.71875 -8.808594 4.714844 -8.761719 C 4.710938 -8.683594 4.707031 -8.59375 4.707031 -8.492188 L 3.957031 -8.507812 L 4.703125 -8.585938 L 4.722656 -8.386719 C 4.765625 -7.976562 4.953125 -7.585938 5.292969 -7.210938 C 5.605469 -6.859375 6.054688 -6.660156 6.644531 -6.609375 L 6.578125 -5.863281 L 6.503906 -6.609375 C 6.648438 -6.621094 6.78125 -6.605469 6.90625 -6.558594 C 6.808594 -6.597656 6.707031 -6.609375 6.605469 -6.597656 L 7.746094 -6.714844 L 7.394531 -5.621094 C 7.320312 -5.386719 7.234375 -5.148438 7.140625 -4.898438 C 7.046875 -4.644531 6.9375 -4.390625 6.824219 -4.136719 Z M 6.824219 -4.136719 "/></g></g></g><g fill="#e7e3dd" fill-opacity="1"><g transform="translate(54.560518, 24.816823)"><g><path d="M 9.445312 -16.964844 L 9.558594 -16.976562 L 9.570312 -16.976562 C 10.101562 -17.011719 10.542969 -16.921875 10.894531 -16.703125 C 11.222656 -16.503906 11.464844 -16.257812 11.628906 -15.964844 C 11.777344 -15.699219 11.863281 -15.441406 11.886719 -15.191406 L 11.898438 -15.082031 L 11.898438 -15.050781 C 11.90625 -14.679688 11.800781 -14.382812 11.585938 -14.164062 C 11.394531 -13.972656 11.160156 -13.859375 10.890625 -13.832031 L 10.71875 -13.816406 L 10.644531 -13.824219 C 10.253906 -13.859375 9.972656 -14.023438 9.804688 -14.316406 C 9.707031 -14.476562 9.652344 -14.652344 9.632812 -14.839844 L 9.617188 -14.96875 C 9.601562 -15.132812 9.621094 -15.285156 9.671875 -15.421875 L 10.375 -15.15625 L 9.628906 -15.082031 L 9.625 -15.113281 L 9.617188 -15.179688 C 9.621094 -15.152344 9.625 -15.128906 9.628906 -15.113281 C 9.625 -15.128906 9.613281 -15.152344 9.59375 -15.179688 C 9.652344 -15.089844 9.726562 -15.03125 9.816406 -15.007812 L 9.816406 -15.003906 C 9.792969 -15.007812 9.761719 -15.003906 9.726562 -15 C 9.609375 -14.988281 9.4375 -14.890625 9.214844 -14.710938 C 8.941406 -14.492188 8.621094 -14.066406 8.25 -13.4375 C 7.855469 -12.765625 7.40625 -11.773438 6.902344 -10.460938 L 6.203125 -10.730469 L 6.125 -11.476562 L 8.632812 -11.730469 C 8.925781 -11.761719 9.175781 -11.691406 9.382812 -11.523438 C 9.589844 -11.351562 9.710938 -11.121094 9.742188 -10.832031 C 9.769531 -10.539062 9.699219 -10.289062 9.53125 -10.078125 C 9.363281 -9.871094 9.128906 -9.753906 8.839844 -9.722656 L 6.03125 -9.433594 L 5.957031 -10.179688 L 6.632812 -9.851562 C 6.492188 -9.5625 6.351562 -9.265625 6.210938 -8.957031 C 6.066406 -8.632812 5.917969 -8.308594 5.761719 -7.980469 L 5.082031 -8.300781 L 5.769531 -8.003906 L -0.179688 5.71875 L -3.515625 6.0625 L -2.769531 4.320312 L -2.113281 2.792969 L -1.175781 0.636719 L -0.101562 -1.84375 L 0.96875 -4.328125 L 1.90625 -6.484375 L 2.5625 -8.011719 L 2.8125 -8.59375 L 2.820312 -8.609375 C 2.964844 -8.902344 3.101562 -9.191406 3.238281 -9.484375 C 3.382812 -9.792969 3.53125 -10.089844 3.683594 -10.375 L 4.34375 -10.015625 L 4.421875 -9.269531 L 2.550781 -9.078125 C 2.257812 -9.046875 2.007812 -9.117188 1.800781 -9.289062 C 1.589844 -9.457031 1.472656 -9.6875 1.441406 -9.980469 C 1.410156 -10.273438 1.480469 -10.523438 1.652344 -10.730469 C 1.820312 -10.941406 2.050781 -11.058594 2.34375 -11.089844 L 4.554688 -11.316406 L 4.628906 -10.570312 L 3.957031 -10.898438 C 4.890625 -12.796875 5.742188 -14.226562 6.503906 -15.179688 C 7.367188 -16.257812 8.347656 -16.851562 9.445312 -16.964844 Z M 9.597656 -15.46875 C 8.917969 -15.402344 8.277344 -14.992188 7.675781 -14.242188 C 6.980469 -13.371094 6.1875 -12.039062 5.300781 -10.238281 L 5.121094 -9.863281 L 2.496094 -9.597656 C 2.617188 -9.609375 2.722656 -9.671875 2.816406 -9.785156 C 2.90625 -9.898438 2.945312 -10.015625 2.933594 -10.132812 C 2.921875 -10.253906 2.859375 -10.359375 2.746094 -10.453125 C 2.632812 -10.542969 2.515625 -10.582031 2.398438 -10.570312 L 5.683594 -10.90625 L 5.003906 -9.65625 C 4.863281 -9.402344 4.730469 -9.132812 4.597656 -8.851562 C 4.460938 -8.554688 4.316406 -8.253906 4.171875 -7.953125 L 3.496094 -8.28125 L 4.1875 -7.984375 L 3.941406 -7.414062 L 3.28125 -5.890625 L 2.347656 -3.734375 L 0.199219 1.234375 L -0.734375 3.390625 L -1.390625 4.914062 L -1.636719 5.480469 L -2.324219 5.183594 L -2.402344 4.4375 L -0.769531 4.269531 L -0.691406 5.019531 L -1.382812 4.71875 L 4.398438 -8.613281 L 4.40625 -8.625 C 4.558594 -8.945312 4.703125 -9.257812 4.84375 -9.570312 C 4.988281 -9.894531 5.132812 -10.207031 5.28125 -10.507812 L 5.464844 -10.886719 L 8.6875 -11.214844 C 8.566406 -11.203125 8.460938 -11.140625 8.367188 -11.027344 C 8.277344 -10.914062 8.234375 -10.796875 8.246094 -10.675781 C 8.261719 -10.558594 8.324219 -10.453125 8.4375 -10.359375 C 8.550781 -10.265625 8.664062 -10.226562 8.785156 -10.238281 L 5.066406 -9.859375 L 5.5 -10.996094 C 6.035156 -12.390625 6.519531 -13.457031 6.957031 -14.199219 C 7.421875 -14.984375 7.859375 -15.542969 8.269531 -15.875 C 8.722656 -16.246094 9.160156 -16.453125 9.574219 -16.492188 C 10.167969 -16.554688 10.589844 -16.394531 10.84375 -16.007812 C 11 -15.773438 11.085938 -15.550781 11.109375 -15.332031 L 11.117188 -15.265625 L 11.136719 -15.058594 L 11.074219 -14.890625 C 11.105469 -14.976562 11.117188 -15.050781 11.109375 -15.121094 L 11.125 -14.992188 C 11.121094 -15.023438 11.113281 -15.046875 11.097656 -15.070312 C 11.039062 -15.171875 10.964844 -15.242188 10.867188 -15.289062 C 10.832031 -15.304688 10.804688 -15.316406 10.785156 -15.316406 L 10.714844 -14.570312 L 10.640625 -15.316406 L 10.738281 -15.328125 C 10.652344 -15.316406 10.582031 -15.285156 10.523438 -15.222656 C 10.464844 -15.164062 10.425781 -15.101562 10.40625 -15.03125 C 10.402344 -15.019531 10.402344 -15.011719 10.398438 -15.003906 C 10.398438 -15.007812 10.398438 -15.011719 10.398438 -15.023438 L 11.148438 -15.035156 L 10.402344 -14.960938 L 10.394531 -15.039062 C 10.390625 -15.082031 10.363281 -15.148438 10.316406 -15.238281 C 10.28125 -15.300781 10.210938 -15.363281 10.109375 -15.425781 C 10.03125 -15.476562 9.882812 -15.492188 9.671875 -15.480469 L 9.621094 -16.226562 L 9.695312 -15.480469 Z M 9.597656 -15.46875 "/></g></g></g><g fill="#000000" fill-opacity="1"><g transform="translate(45.744599, 25.718958)"><g><path d="M 11.183594 -9.007812 C 11.28125 -8.976562 11.335938 -8.910156 11.34375 -8.800781 C 11.351562 -8.75 11.347656 -8.707031 11.339844 -8.679688 C 11.089844 -8.078125 10.761719 -7.578125 10.34375 -7.183594 C 9.929688 -6.785156 9.472656 -6.480469 8.972656 -6.265625 C 8.46875 -6.054688 7.96875 -5.921875 7.464844 -5.871094 L 7.222656 -5.847656 C 7.144531 -5.585938 7.050781 -5.320312 6.941406 -5.054688 C 6.835938 -4.789062 6.71875 -4.515625 6.585938 -4.234375 C 6.042969 -3.105469 5.398438 -2.183594 4.644531 -1.472656 C 3.894531 -0.757812 3.140625 -0.347656 2.386719 -0.246094 L 2.207031 -0.226562 C 1.652344 -0.167969 1.199219 -0.25 0.847656 -0.46875 C 0.496094 -0.6875 0.234375 -0.984375 0.0625 -1.355469 C -0.109375 -1.726562 -0.214844 -2.097656 -0.253906 -2.46875 C -0.257812 -2.535156 -0.265625 -2.597656 -0.273438 -2.65625 C -0.277344 -2.714844 -0.277344 -2.773438 -0.269531 -2.828125 C -0.261719 -3.417969 -0.179688 -4.054688 -0.0234375 -4.734375 C 0.136719 -5.414062 0.382812 -6.085938 0.71875 -6.75 C 1.417969 -8.136719 2.164062 -9.132812 2.953125 -9.742188 C 3.742188 -10.355469 4.503906 -10.695312 5.230469 -10.769531 L 5.449219 -10.792969 C 5.53125 -10.800781 5.675781 -10.796875 5.886719 -10.777344 C 6.09375 -10.757812 6.324219 -10.691406 6.570312 -10.574219 C 6.816406 -10.460938 7.03125 -10.269531 7.222656 -10 C 7.410156 -9.730469 7.53125 -9.34375 7.582031 -8.839844 C 7.589844 -8.761719 7.59375 -8.675781 7.597656 -8.589844 C 7.597656 -8.503906 7.601562 -8.398438 7.597656 -8.277344 C 7.601562 -7.984375 7.585938 -7.675781 7.550781 -7.359375 C 7.519531 -7.039062 7.472656 -6.710938 7.410156 -6.367188 C 8.074219 -6.4375 8.734375 -6.671875 9.390625 -7.074219 C 10.046875 -7.476562 10.535156 -8.074219 10.855469 -8.871094 C 10.886719 -8.957031 10.957031 -9.003906 11.0625 -9.015625 C 11.117188 -9.019531 11.15625 -9.019531 11.183594 -9.007812 Z M 7.074219 -8.105469 C 7.078125 -8.199219 7.078125 -8.296875 7.074219 -8.394531 C 7.070312 -8.496094 7.0625 -8.59375 7.054688 -8.683594 C 7.039062 -8.816406 7.019531 -8.953125 6.992188 -9.089844 C 6.964844 -9.230469 6.917969 -9.363281 6.851562 -9.488281 C 6.714844 -9.78125 6.527344 -9.960938 6.292969 -10.023438 C 6.058594 -10.089844 5.855469 -10.109375 5.683594 -10.09375 C 5.644531 -10.089844 5.609375 -10.082031 5.574219 -10.070312 C 5.542969 -10.0625 5.511719 -10.054688 5.488281 -10.054688 C 5.082031 -9.945312 4.808594 -9.738281 4.664062 -9.4375 C 4.523438 -9.132812 4.453125 -8.828125 4.457031 -8.519531 L 4.472656 -8.359375 C 4.519531 -7.910156 4.722656 -7.476562 5.089844 -7.066406 C 5.453125 -6.65625 5.964844 -6.421875 6.628906 -6.367188 L 6.832031 -6.351562 C 6.980469 -6.96875 7.0625 -7.554688 7.074219 -8.105469 Z M 6.140625 -4.449219 C 6.25 -4.6875 6.351562 -4.925781 6.4375 -5.164062 C 6.527344 -5.402344 6.609375 -5.628906 6.679688 -5.851562 C 6.667969 -5.851562 6.652344 -5.851562 6.640625 -5.859375 C 6.625 -5.863281 6.605469 -5.863281 6.578125 -5.863281 C 5.792969 -5.929688 5.179688 -6.210938 4.734375 -6.707031 C 4.285156 -7.207031 4.035156 -7.738281 3.976562 -8.308594 L 3.957031 -8.507812 C 3.957031 -8.617188 3.960938 -8.714844 3.964844 -8.800781 C 3.96875 -8.890625 3.980469 -8.972656 4 -9.054688 C 3.355469 -8.414062 2.800781 -7.601562 2.339844 -6.613281 C 2.042969 -5.980469 1.789062 -5.34375 1.578125 -4.707031 C 1.371094 -4.066406 1.265625 -3.472656 1.269531 -2.925781 C 1.265625 -2.84375 1.265625 -2.765625 1.273438 -2.695312 C 1.28125 -2.621094 1.289062 -2.550781 1.292969 -2.484375 C 1.335938 -2.074219 1.445312 -1.734375 1.621094 -1.460938 C 1.796875 -1.191406 2.050781 -1.042969 2.390625 -1.007812 C 2.445312 -1 2.519531 -1 2.609375 -1.011719 C 2.957031 -1.046875 3.339844 -1.214844 3.765625 -1.523438 C 4.191406 -1.828125 4.613281 -2.230469 5.039062 -2.738281 C 5.460938 -3.242188 5.832031 -3.8125 6.140625 -4.449219 Z M 6.140625 -4.449219 "/></g></g></g><g fill="#000000" fill-opacity="1"><g transform="translate(54.560518, 24.816823)"><g><path d="M 9.519531 -16.21875 L 9.621094 -16.226562 C 9.992188 -16.25 10.289062 -16.199219 10.5 -16.066406 C 10.714844 -15.933594 10.875 -15.777344 10.972656 -15.601562 C 11.070312 -15.421875 11.128906 -15.261719 11.140625 -15.117188 L 11.148438 -15.035156 C 11.152344 -14.875 11.121094 -14.761719 11.054688 -14.695312 C 10.988281 -14.628906 10.90625 -14.589844 10.816406 -14.578125 L 10.714844 -14.570312 C 10.578125 -14.582031 10.492188 -14.625 10.453125 -14.695312 C 10.410156 -14.761719 10.386719 -14.835938 10.378906 -14.917969 C 10.375 -14.957031 10.371094 -15 10.363281 -15.046875 C 10.359375 -15.09375 10.363281 -15.128906 10.375 -15.15625 C 10.375 -15.15625 10.371094 -15.167969 10.371094 -15.1875 C 10.367188 -15.207031 10.367188 -15.230469 10.363281 -15.257812 C 10.355469 -15.351562 10.304688 -15.460938 10.21875 -15.59375 C 10.132812 -15.726562 9.941406 -15.777344 9.648438 -15.746094 C 9.382812 -15.71875 9.082031 -15.570312 8.742188 -15.292969 C 8.402344 -15.015625 8.023438 -14.523438 7.605469 -13.820312 C 7.1875 -13.113281 6.71875 -12.082031 6.203125 -10.730469 L 8.710938 -10.984375 C 8.882812 -11.003906 8.976562 -10.925781 8.996094 -10.753906 C 9.011719 -10.582031 8.933594 -10.484375 8.761719 -10.46875 L 5.957031 -10.179688 C 5.8125 -9.886719 5.667969 -9.578125 5.527344 -9.261719 C 5.386719 -8.945312 5.238281 -8.625 5.082031 -8.300781 L -0.691406 5.019531 L -2.324219 5.183594 C -2.324219 5.183594 -2.242188 4.996094 -2.082031 4.617188 C -1.917969 4.238281 -1.699219 3.730469 -1.421875 3.089844 C -1.148438 2.453125 -0.835938 1.734375 -0.488281 0.933594 C -0.140625 0.136719 0.21875 -0.691406 0.585938 -1.546875 C 0.953125 -2.402344 1.3125 -3.230469 1.660156 -4.03125 C 2.007812 -4.832031 2.316406 -5.550781 2.59375 -6.1875 C 2.871094 -6.824219 3.089844 -7.335938 3.253906 -7.714844 C 3.414062 -8.089844 3.496094 -8.28125 3.496094 -8.28125 C 3.640625 -8.578125 3.78125 -8.871094 3.917969 -9.167969 C 4.054688 -9.464844 4.199219 -9.746094 4.34375 -10.015625 L 2.472656 -9.824219 C 2.300781 -9.808594 2.207031 -9.886719 2.1875 -10.058594 C 2.171875 -10.230469 2.25 -10.324219 2.421875 -10.34375 L 4.628906 -10.570312 C 5.539062 -12.417969 6.359375 -13.800781 7.089844 -14.710938 C 7.824219 -15.625 8.632812 -16.125 9.519531 -16.21875 Z M 9.519531 -16.21875 "/></g></g></g></svg>